<svg width="24" height="24" viewBox="0 0 24 24" fill="none" xmlns="http://www.w3.org/2000/svg">
<circle opacity="0.2" cx="12" cy="11.9999" r="12" fill="#00AAFE"/>
<mask id="mask0_703_4796" style="mask-type:alpha" maskUnits="userSpaceOnUse" x="0" y="0" width="24" height="24">
<circle cx="12" cy="11.9999" r="12" fill="white"/>
</mask>
<g mask="url(#mask0_703_4796)">
<path fill-rule="evenodd" clip-rule="evenodd" d="M17.7011 8.58248C17.6145 7.1417 16.4187 6 14.9561 6H9.45612L9.35435 6.00685C8.98827 6.05651 8.70612 6.3703 8.70612 6.75C8.70612 7.16421 9.04191 7.5 9.45612 7.5H14.9561L15.0839 7.50645C15.7142 7.57047 16.2061 8.10279 16.2061 8.75V11.4371L14.9864 10.2177L14.9023 10.1451C14.6087 9.9272 14.1921 9.9514 13.9258 10.2177C13.6329 10.5106 13.6329 10.9854 13.9258 11.2783L16.3941 13.7467C16.5316 13.902 16.7324 14 16.9561 14C17.1798 14 17.3807 13.902 17.5181 13.7467L19.9865 11.2783L20.0591 11.1942C20.2769 10.9006 20.2527 10.4839 19.9865 10.2177L19.9023 10.1451C19.6087 9.9272 19.1921 9.9514 18.9258 10.2177L17.7061 11.4371V8.75L17.7011 8.58248ZM6.25 12.5666L5.03033 13.7861C4.76406 14.0523 4.3474 14.0766 4.05379 13.8587L3.96967 13.7861C3.7034 13.5198 3.6792 13.1031 3.89705 12.8095L3.96967 12.7254L6.46967 10.2254C6.73594 9.95915 7.1526 9.93495 7.44621 10.1528L7.46855 10.1721C7.48298 10.1836 7.49697 10.1957 7.5105 10.2083L7.53033 10.2254L10.0303 12.7254C10.3232 13.0183 10.3232 13.4932 10.0303 13.7861C9.76406 14.0523 9.3474 14.0766 9.05379 13.8587L8.96967 13.7861L7.75 12.5666V15.2577C7.75 15.905 8.24187 16.4373 8.87219 16.5013L9 16.5077H14.5C14.9142 16.5077 15.25 16.8435 15.25 17.2577C15.25 17.6374 14.9678 17.9512 14.6018 18.0009L14.5 18.0077H9C7.53747 18.0077 6.3416 16.866 6.25502 15.4253L6.25 15.2577V12.5666Z" fill="#00AAFE"/>
</g>
</svg>
