<svg width="24" height="24" viewBox="0 0 24 24" fill="none" xmlns="http://www.w3.org/2000/svg">
<path fill-rule="evenodd" clip-rule="evenodd" d="M12 0C18.6272 0 24 5.37279 24 12C24 15.8429 22.1935 19.2639 19.3833 21.4603C19.3768 21.4655 19.3703 21.4706 19.3636 21.4756C17.3307 23.0577 14.7754 24 12 24C9.22472 24 6.66942 23.0578 4.63656 21.4758C4.6298 21.4707 4.6231 21.4655 4.61647 21.4601C1.80646 19.2638 0 15.8428 0 12C0 5.37279 5.37279 0 12 0ZM6.27663 20.8044C7.92298 21.8768 9.88874 22.5 12 22.5C14.1112 22.5 16.077 21.8768 17.7233 20.8044C14.4105 18.0662 9.59203 18.0635 6.27663 20.8044ZM18.9447 19.8753C14.9878 16.3769 9.01788 16.3728 5.05534 19.8754C2.87515 17.9514 1.5 15.1362 1.5 12C1.5 6.20121 6.20121 1.5 12 1.5C17.7988 1.5 22.5 6.20121 22.5 12C22.5 15.1362 21.1249 17.9513 18.9447 19.8753ZM18 9.75C18 6.43679 15.3132 3.75 12 3.75C8.68679 3.75 6 6.43679 6 9.75C6 13.0632 8.68679 15.75 12 15.75C15.3132 15.75 18 13.0632 18 9.75ZM7.5 9.75C7.5 7.26521 9.51521 5.25 12 5.25C14.4848 5.25 16.5 7.26521 16.5 9.75C16.5 12.2348 14.4848 14.25 12 14.25C9.51521 14.25 7.5 12.2348 7.5 9.75Z" fill="white"/>
</svg>
