<svg width="24" height="24" viewBox="0 0 24 24" fill="none" xmlns="http://www.w3.org/2000/svg">
<path fill-rule="evenodd" clip-rule="evenodd" d="M6.4523 1.65817C1.84869 3.61516 -0.297698 8.93415 1.6591 13.5373C3.61606 18.1409 8.93506 20.2873 13.5382 18.3305C14.3978 17.9651 15.1718 17.4824 15.8493 16.9091L21.7821 22.8428L21.8662 22.9154C22.1598 23.1333 22.5765 23.1091 22.8428 22.8429C23.1357 22.55 23.1357 22.0751 22.8429 21.7822L16.9096 15.8481C19.0471 13.3191 19.715 9.70626 18.3314 6.45134C16.3744 1.84765 11.0562 -0.298519 6.4523 1.65817ZM15.3819 15.2982C17.4639 13.1819 18.1843 9.93952 16.9509 7.03817C15.318 3.19678 10.8805 1.40601 7.03907 3.03865C3.19786 4.67154 1.40687 9.10979 3.03955 12.9505C4.67244 16.7917 9.1107 18.5827 12.9514 16.95C13.8526 16.5669 14.641 16.0294 15.2988 15.3814C15.3115 15.3665 15.3249 15.352 15.339 15.338C15.3529 15.3241 15.3672 15.3108 15.3819 15.2982Z" fill="white"/>
</svg>
