<svg width="25" height="24" viewBox="0 0 25 24" fill="none" xmlns="http://www.w3.org/2000/svg">
<path fill-rule="evenodd" clip-rule="evenodd" d="M24.7999 6.75C24.7999 3.02179 21.7782 0 18.05 0C14.3218 0 11.3001 3.02179 11.3001 6.75C11.3001 10.4782 14.3218 13.5 18.05 13.5C21.7782 13.5 24.7999 10.4782 24.7999 6.75ZM12.8 6.75C12.8 3.85021 15.1502 1.5 18.05 1.5C20.9498 1.5 23.2999 3.85021 23.2999 6.75C23.2999 9.64979 20.9498 12 18.05 12C15.1502 12 12.8 9.64979 12.8 6.75ZM21.05 8.25C21.05 7.73787 20.8787 7.26558 20.5903 6.88733L20.4768 6.75L20.5903 6.61267C20.8787 6.23442 21.05 5.76213 21.05 5.25C21.05 4.00779 20.0422 3 18.8 3C18.8 2.58579 18.4642 2.25 18.05 2.25C17.6358 2.25 17.3 2.58579 17.3 3H16.55C16.1358 3 15.8 3.33579 15.8 3.75V6.75V9.75C15.8 10.1642 16.1358 10.5 16.55 10.5H17.3C17.3 10.9142 17.6358 11.25 18.05 11.25C18.4642 11.25 18.8 10.9142 18.8 10.5C20.0422 10.5 21.05 9.49221 21.05 8.25ZM18.05 9H17.3V7.5H18.7966L18.9017 7.50686C19.2675 7.55657 19.55 7.8707 19.55 8.25C19.55 8.66379 19.2138 9 18.8 9H18.05ZM17.3 4.5H18.05H18.8C19.2138 4.5 19.55 4.83621 19.55 5.25C19.55 5.6293 19.2675 5.94343 18.9017 5.99314L18.7966 6H17.3V4.5ZM6.80011 13.5114V13.5C6.80011 13.0858 7.13589 12.75 7.5501 12.75C7.96431 12.75 8.30009 13.0858 8.30009 13.5H9.05008C9.46429 13.5 9.80008 13.8358 9.80008 14.25C9.80008 14.6642 9.46429 15 9.05008 15L7.55114 15L7.5501 15L7.54906 15H7.01812C6.69074 15.0004 6.42567 15.2658 6.42611 15.593C6.42611 15.8339 6.57301 16.0512 6.79576 16.1407L8.8612 16.9673C9.93344 17.399 10.4525 18.6169 10.0211 19.6885C9.73043 20.4122 9.0639 20.9082 8.30009 20.9885V21C8.30009 21.4142 7.96431 21.75 7.5501 21.75C7.13589 21.75 6.80011 21.4142 6.80011 21H6.05011C5.6359 21 5.30012 20.6642 5.30012 20.25C5.30012 19.8358 5.6359 19.5 6.05011 19.5H7.5501H8.08109C8.32197 19.5 8.53933 19.3531 8.62936 19.1289C8.75159 18.8253 8.6049 18.4811 8.30243 18.3593L6.23762 17.533C5.4455 17.2149 4.92612 16.4464 4.92612 15.594C4.92466 14.512 5.74595 13.6212 6.80011 13.5114ZM7.5501 10.5C11.2783 10.5 14.3 13.5218 14.3 17.25C14.3 20.9782 11.2783 24 7.5501 24C3.82192 24 0.800162 20.9782 0.800162 17.25C0.800162 13.5218 3.82192 10.5 7.5501 10.5ZM7.5501 12C4.65034 12 2.30015 14.3502 2.30015 17.25C2.30015 20.1498 4.65034 22.5 7.5501 22.5C10.4499 22.5 12.8 20.1498 12.8 17.25C12.8 14.3502 10.4499 12 7.5501 12ZM3.8123 6.81253L2.19327 4.11413C1.98016 3.75894 1.51947 3.64377 1.16429 3.85688C0.809105 4.06999 0.693932 4.53069 0.907041 4.88587L3.15702 8.63587C3.37013 8.99106 3.83082 9.10623 4.186 8.89312L7.93597 6.64312C8.29115 6.43001 8.40632 5.96931 8.19321 5.61413C7.9801 5.25894 7.51941 5.14377 7.16423 5.35688L5.35333 6.44343C5.64531 4.26715 7.11833 2.3807 9.24608 1.60459C9.63521 1.46265 9.83561 1.03213 9.69367 0.642999C9.55173 0.253863 9.12122 0.0534699 8.73209 0.195408C5.8889 1.23247 3.9809 3.85608 3.8123 6.81253ZM23.4068 19.8859C23.6199 20.2411 24.0806 20.3562 24.4358 20.1431C24.791 19.93 24.9062 19.4693 24.6931 19.1141L22.4431 15.3641C22.23 15.0089 21.7693 14.8938 21.4141 15.1069L17.6641 17.3569C17.3089 17.57 17.1938 18.0307 17.4069 18.3859C17.62 18.7411 18.0807 18.8562 18.4359 18.6431L20.2466 17.5567C19.9545 19.7331 18.4813 21.62 16.3542 22.3954C15.965 22.5372 15.7645 22.9677 15.9064 23.3569C16.0482 23.746 16.4787 23.9465 16.8679 23.8046C19.7107 22.7683 21.6191 20.1439 21.7876 17.1872L23.4068 19.8859Z" fill="#14D37C"/>
</svg>
