<svg width="24" height="24" viewBox="0 0 24 24" fill="none" xmlns="http://www.w3.org/2000/svg">
<path fill-rule="evenodd" clip-rule="evenodd" d="M23.9999 6.75C23.9999 3.02179 20.9781 0 17.25 0C13.5218 0 10.5 3.02179 10.5 6.75C10.5 10.4782 13.5218 13.5 17.25 13.5C20.9781 13.5 23.9999 10.4782 23.9999 6.75ZM12 6.75C12 3.85021 14.3502 1.5 17.25 1.5C20.1497 1.5 22.4999 3.85021 22.4999 6.75C22.4999 9.64979 20.1497 12 17.25 12C14.3502 12 12 9.64979 12 6.75ZM20.2499 8.25C20.2499 7.73787 20.0786 7.26558 19.7902 6.88733L19.6767 6.75L19.7902 6.61267C20.0786 6.23442 20.2499 5.76213 20.2499 5.25C20.2499 4.00779 19.2421 3 17.9999 3C17.9999 2.58579 17.6642 2.25 17.25 2.25C16.8357 2.25 16.5 2.58579 16.5 3H15.75C15.3358 3 15 3.33579 15 3.75V6.75V9.75C15 10.1642 15.3358 10.5 15.75 10.5H16.5C16.5 10.9142 16.8357 11.25 17.25 11.25C17.6642 11.25 17.9999 10.9142 17.9999 10.5C19.2421 10.5 20.2499 9.49221 20.2499 8.25ZM17.25 9H16.5V7.5H17.9966L18.1016 7.50686C18.4674 7.55657 18.7499 7.8707 18.7499 8.25C18.7499 8.66379 18.4137 9 17.9999 9H17.25ZM16.5 4.5H17.25H17.9999C18.4137 4.5 18.7499 4.83621 18.7499 5.25C18.7499 5.6293 18.4674 5.94343 18.1016 5.99314L17.9966 6H16.5V4.5ZM6.00006 13.5114V13.5C6.00006 13.0858 6.33584 12.75 6.75005 12.75C7.16426 12.75 7.50004 13.0858 7.50004 13.5H8.25004C8.66424 13.5 9.00003 13.8358 9.00003 14.25C9.00003 14.6642 8.66424 15 8.25004 15L6.75109 15L6.75005 15L6.74901 15H6.21807C5.89069 15.0004 5.62562 15.2658 5.62606 15.593C5.62606 15.8339 5.77296 16.0512 5.99572 16.1407L8.06115 16.9673C9.13339 17.399 9.65245 18.6169 9.22101 19.6885C8.93038 20.4122 8.26385 20.9082 7.50004 20.9885V21C7.50004 21.4142 7.16426 21.75 6.75005 21.75C6.33584 21.75 6.00006 21.4142 6.00006 21H5.25006C4.83585 21 4.50007 20.6642 4.50007 20.25C4.50007 19.8358 4.83585 19.5 5.25006 19.5H6.75005H7.28104C7.52192 19.5 7.73928 19.3531 7.82931 19.1289C7.95154 18.8253 7.80485 18.4811 7.50238 18.3593L5.43757 17.533C4.64545 17.2149 4.12607 16.4464 4.12607 15.594C4.12462 14.512 4.9459 13.6212 6.00006 13.5114ZM6.75005 10.5C10.4782 10.5 13.5 13.5218 13.5 17.25C13.5 20.9782 10.4782 24 6.75005 24C3.02187 24 0.000113347 20.9782 0.000113347 17.25C0.000113347 13.5218 3.02187 10.5 6.75005 10.5ZM6.75005 12C3.85029 12 1.5001 14.3502 1.5001 17.25C1.5001 20.1498 3.85029 22.5 6.75005 22.5C9.64981 22.5 12 20.1498 12 17.25C12 14.3502 9.64981 12 6.75005 12ZM3.01225 6.81253L1.39322 4.11413C1.18011 3.75894 0.71942 3.64377 0.364238 3.85688C0.00905624 4.06999 -0.106116 4.53069 0.106993 4.88587L2.35697 8.63587C2.57008 8.99106 3.03077 9.10623 3.38595 8.89312L7.13592 6.64312C7.4911 6.43001 7.60627 5.96931 7.39316 5.61413C7.18005 5.25894 6.71936 5.14377 6.36418 5.35688L4.55328 6.44343C4.84526 4.26715 6.31828 2.3807 8.44603 1.60459C8.83517 1.46265 9.03556 1.03213 8.89362 0.642999C8.75169 0.253863 8.32117 0.0534699 7.93204 0.195408C5.08886 1.23247 3.18085 3.85608 3.01225 6.81253ZM22.6068 19.8859C22.8199 20.2411 23.2806 20.3562 23.6358 20.1431C23.9909 19.93 24.1061 19.4693 23.893 19.1141L21.643 15.3641C21.4299 15.0089 20.9692 14.8938 20.614 15.1069L16.8641 17.3569C16.5089 17.57 16.3937 18.0307 16.6068 18.3859C16.8199 18.7411 17.2806 18.8562 17.6358 18.6431L19.4465 17.5567C19.1544 19.7331 17.6812 21.62 15.5541 22.3954C15.1649 22.5372 14.9645 22.9677 15.1063 23.3569C15.2482 23.746 15.6787 23.9465 16.0678 23.8046C18.9107 22.7683 20.819 20.1439 20.9876 17.1872L22.6068 19.8859Z" fill="white"/>
</svg>
