<svg width="24" height="24" viewBox="0 0 24 24" fill="none" xmlns="http://www.w3.org/2000/svg">
<path fill-rule="evenodd" clip-rule="evenodd" d="M14.7807 9.17089L21.4393 2.50225H16.5C16.0858 2.50225 15.75 2.16596 15.75 1.75112C15.75 1.33629 16.0858 1 16.5 1H23.25C23.3517 1 23.4487 1.02027 23.5371 1.05699C23.6255 1.09365 23.7084 1.14798 23.7803 1.22C23.8522 1.29201 23.9065 1.37501 23.9431 1.46361C23.9751 1.5409 23.9946 1.6247 23.999 1.71247C23.9997 1.72527 24 1.73816 24 1.75112V8.51123C24 8.92607 23.6642 9.26236 23.25 9.26236C22.8358 9.26236 22.5 8.92607 22.5 8.51123V3.5645L15.8415 10.233C15.4195 10.6559 14.847 10.8935 14.25 10.8935C13.653 10.8935 13.0805 10.6559 12.6587 10.2331L9.5305 7.10028C9.38983 6.95932 9.199 6.88011 9 6.88011C8.801 6.88011 8.61017 6.95932 8.46933 7.10045L1.28033 14.3002C0.987437 14.5936 0.512563 14.5936 0.21967 14.3002C-0.0732233 14.0069 -0.0732233 13.5313 0.21967 13.238L7.4085 6.03838C7.8305 5.61547 8.40301 5.37787 9 5.37787C9.59699 5.37787 10.1695 5.61547 10.5913 6.03821L13.7195 9.17106C13.8602 9.31203 14.051 9.39123 14.25 9.39123C14.449 9.39123 14.6398 9.31203 14.7807 9.17089ZM23.25 23H0.75C0.335786 23 1.49012e-08 22.6637 1.49012e-08 22.2489C1.49012e-08 21.834 0.335786 21.4978 0.75 21.4978H23.25C23.6642 21.4978 24 21.834 24 22.2489C24 22.6637 23.6642 23 23.25 23Z" fill="white"/>
</svg>
