<svg width="24" height="24" viewBox="0 0 24 24" fill="none" xmlns="http://www.w3.org/2000/svg">
<path fill-rule="evenodd" clip-rule="evenodd" d="M17.25 3.56281V3.7508H21.293C22.7875 3.7508 23.9992 4.96187 24 6.45669V12.2753C24 13.1121 23.4051 13.81 22.6151 13.9691L23.7253 21.4081C23.8251 22.0573 23.6363 22.7176 23.2084 23.2159C22.7804 23.7142 22.1561 24.0006 21.5 24H2.49971C1.84341 23.9997 1.21992 23.7129 0.792662 23.2148C0.3654 22.7166 0.176956 22.0567 0.276691 21.4082L1.38506 13.9692C0.594992 13.8101 0 13.1122 0 12.2753V6.45669C0 4.96227 1.21152 3.7508 2.706 3.7508H6.75033L6.75042 3.53767C6.81591 1.58546 8.39863 0.0409843 10.308 0L13.6706 0.000273915C15.6016 0.0403454 17.1848 1.58608 17.25 3.56281ZM2.26165 12.5033C2.25324 12.5031 2.24486 12.5031 2.2365 12.5033H1.728C1.60208 12.5033 1.5 12.4012 1.5 12.2753V6.45669C1.5 5.79066 2.03994 5.25074 2.706 5.25074H7.5H16.5H21.293C21.9594 5.25074 22.4997 5.79073 22.5 6.45707V12.2753C22.5 12.4012 22.3979 12.5033 22.272 12.5033H21.7635C21.7551 12.5031 21.7468 12.5031 21.7383 12.5033H15V11.0033C15 10.1749 14.3284 9.50338 13.5 9.50338H10.5C9.67157 9.50338 9 10.1749 9 11.0033V12.5033H2.26165ZM2.89653 14.0032L1.75929 21.6361C1.72603 21.8523 1.78885 22.0723 1.93127 22.2383C2.07369 22.4044 2.28152 22.5 2.5 22.5H21.5007C21.7197 22.5002 21.9278 22.4048 22.0704 22.2387C22.2131 22.0726 22.276 21.8525 22.2427 21.6361L21.1036 14.0032H14.9095C14.5819 15.3592 13.4035 16.5003 12 16.5003C10.5965 16.5003 9.41813 15.3592 9.09055 14.0032H2.89653ZM12 14.7532C11.1716 14.7532 10.5 14.0816 10.5 13.2532V11.0033H13.5V13.2532C13.5 14.0816 12.8284 14.7532 12 14.7532ZM8.25 3.7508H15.7503L15.7504 3.58769C15.7126 2.44867 14.7993 1.54471 13.6571 1.5014L10.3225 1.50114C9.20093 1.54507 8.2878 2.44788 8.25 3.56281V3.7508Z" fill="white"/>
</svg>
