<svg width="24" height="24" viewBox="0 0 24 24" fill="none" xmlns="http://www.w3.org/2000/svg">
<path fill-rule="evenodd" clip-rule="evenodd" d="M12 4C16.4183 4 20 7.58172 20 12C20 16.4183 16.4183 20 12 20C7.58172 20 4 16.4183 4 12C4 7.58172 7.58172 4 12 4ZM12 5.5C8.41015 5.5 5.5 8.41015 5.5 12C5.5 15.5899 8.41015 18.5 12 18.5C15.5899 18.5 18.5 15.5899 18.5 12C18.5 8.41015 15.5899 5.5 12 5.5ZM13.355 15.0035H12.9536V11.2505C12.9536 10.8363 12.6375 10.5005 12.2477 10.5005H11.0588C10.669 10.5005 10.3529 10.8363 10.3529 11.2505C10.3529 11.6647 10.669 12.0005 11.0588 12.0005H11.5418V15.0035H10.9772C10.5874 15.0035 10.2714 15.3393 10.2714 15.7535C10.2714 16.1678 10.5874 16.5035 10.9772 16.5035H13.355C13.7448 16.5035 14.0608 16.1678 14.0608 15.7535C14.0608 15.3393 13.7448 15.0035 13.355 15.0035ZM12.0054 9.5286C11.4719 9.5286 11.0395 9.06911 11.0395 8.50229C11.0395 7.93547 11.4719 7.47597 12.0054 7.47597C12.5389 7.47597 12.9714 7.93547 12.9714 8.50229C12.9714 9.06911 12.5389 9.5286 12.0054 9.5286Z" fill="#14D37C"/>
</svg>
