<svg width="24" height="24" viewBox="0 0 24 24" fill="none" xmlns="http://www.w3.org/2000/svg">
<circle opacity="0.2" cx="12" cy="11.9999" r="12" fill="#FFB517"/>
<mask id="mask0_703_4795" style="mask-type:alpha" maskUnits="userSpaceOnUse" x="0" y="0" width="24" height="24">
<circle cx="12" cy="11.9999" r="12" fill="white"/>
</mask>
<g mask="url(#mask0_703_4795)">
<path fill-rule="evenodd" clip-rule="evenodd" d="M18.25 9.98935C18.6297 9.98935 18.9435 9.70719 18.9932 9.34112L19 9.23935V6.75C19 5.83183 18.2929 5.07881 17.3935 5.0058L17.25 5H14.753C14.3388 5 14.003 5.33579 14.003 5.75C14.003 6.1297 14.2852 6.44349 14.6512 6.49315L14.753 6.5H17.25C17.3683 6.5 17.4675 6.58223 17.4934 6.69268L17.5 6.75V9.23935C17.5 9.65356 17.8358 9.98935 18.25 9.98935ZM11.25 10.9858H6.75C5.7835 10.9858 5 11.7693 5 12.7358V17.2393C5 18.2058 5.7835 18.9893 6.75 18.9893H11.25C12.2165 18.9893 13 18.2058 13 17.2393V12.7358C13 11.7693 12.2165 10.9858 11.25 10.9858ZM6.75 12.4858H11.25C11.3881 12.4858 11.5 12.5978 11.5 12.7358V17.2393C11.5 17.3774 11.3881 17.4893 11.25 17.4893H6.75C6.61193 17.4893 6.5 17.3774 6.5 17.2393V12.7358C6.5 12.5978 6.61193 12.4858 6.75 12.4858ZM18.9932 14.6482C18.9435 14.2822 18.6297 14 18.25 14C17.8358 14 17.5 14.3358 17.5 14.75V17.2393L17.4934 17.2967C17.4675 17.4071 17.3683 17.4893 17.25 17.4893H14.753L14.6512 17.4962C14.2852 17.5459 14.003 17.8597 14.003 18.2393C14.003 18.6536 14.3388 18.9893 14.753 18.9893H17.25L17.3935 18.9835C18.2929 18.9105 19 18.1575 19 17.2393V14.75L18.9932 14.6482ZM5.00985 9.34112C5.05951 9.70719 5.37331 9.98935 5.753 9.98935C6.16722 9.98935 6.503 9.65356 6.503 9.23935V6.75L6.50961 6.69268C6.53552 6.58223 6.63466 6.5 6.753 6.5H9.25L9.35177 6.49315C9.71785 6.44349 10 6.1297 10 5.75C10 5.33579 9.66421 5 9.25 5H6.753L6.60948 5.0058C5.71011 5.07881 5.003 5.83183 5.003 6.75V9.23935L5.00985 9.34112Z" fill="#FFB517"/>
</g>
</svg>
